<mxfile host="Electron" modified="2023-04-21T17:24:46.872Z" agent="Mozilla/5.0 (Windows NT 10.0; Win64; x64) AppleWebKit/537.36 (KHTML, like Gecko) draw.io/21.2.1 Chrome/112.0.5615.87 Electron/24.1.2 Safari/537.36" etag="jaAYRui4f_3jZPdoGBEQ" version="21.2.1" type="device">
  <diagram name="Page-1" id="Zv3EZnQN23YBHn1P_N0_">
    <mxGraphModel dx="1036" dy="614" grid="1" gridSize="10" guides="1" tooltips="1" connect="1" arrows="1" fold="1" page="1" pageScale="1" pageWidth="850" pageHeight="1100" math="0" shadow="0">
      <root>
        <mxCell id="0" />
        <mxCell id="1" parent="0" />
        <mxCell id="NIjT0az0jiD7nAceEYET-4" value="" style="edgeStyle=orthogonalEdgeStyle;rounded=0;orthogonalLoop=1;jettySize=auto;html=1;" parent="1" source="NIjT0az0jiD7nAceEYET-2" target="NIjT0az0jiD7nAceEYET-3" edge="1">
          <mxGeometry relative="1" as="geometry" />
        </mxCell>
        <mxCell id="NIjT0az0jiD7nAceEYET-13" style="edgeStyle=orthogonalEdgeStyle;rounded=0;orthogonalLoop=1;jettySize=auto;html=1;exitX=1;exitY=0.5;exitDx=0;exitDy=0;entryX=0;entryY=0.5;entryDx=0;entryDy=0;entryPerimeter=0;" parent="1" source="NIjT0az0jiD7nAceEYET-2" target="NIjT0az0jiD7nAceEYET-12" edge="1">
          <mxGeometry relative="1" as="geometry" />
        </mxCell>
        <mxCell id="NIjT0az0jiD7nAceEYET-2" value="Browser" style="shape=module;align=left;spacingLeft=20;align=center;verticalAlign=top;" parent="1" vertex="1">
          <mxGeometry x="40" y="80" width="100" height="50" as="geometry" />
        </mxCell>
        <mxCell id="NIjT0az0jiD7nAceEYET-6" value="" style="edgeStyle=orthogonalEdgeStyle;rounded=0;orthogonalLoop=1;jettySize=auto;html=1;" parent="1" source="NIjT0az0jiD7nAceEYET-3" target="NIjT0az0jiD7nAceEYET-5" edge="1">
          <mxGeometry relative="1" as="geometry" />
        </mxCell>
        <mxCell id="NIjT0az0jiD7nAceEYET-3" value="http request" style="shape=requiredInterface;html=1;verticalLabelPosition=bottom;sketch=0;" parent="1" vertex="1">
          <mxGeometry x="200" y="95" width="10" height="20" as="geometry" />
        </mxCell>
        <mxCell id="NIjT0az0jiD7nAceEYET-8" value="" style="edgeStyle=orthogonalEdgeStyle;rounded=0;orthogonalLoop=1;jettySize=auto;html=1;" parent="1" source="NIjT0az0jiD7nAceEYET-5" target="NIjT0az0jiD7nAceEYET-7" edge="1">
          <mxGeometry relative="1" as="geometry" />
        </mxCell>
        <mxCell id="NIjT0az0jiD7nAceEYET-5" value="UserController" style="shape=module;align=left;spacingLeft=20;align=center;verticalAlign=top;" parent="1" vertex="1">
          <mxGeometry x="280" y="80" width="100" height="50" as="geometry" />
        </mxCell>
        <mxCell id="NIjT0az0jiD7nAceEYET-11" value="" style="edgeStyle=orthogonalEdgeStyle;rounded=0;orthogonalLoop=1;jettySize=auto;html=1;" parent="1" source="NIjT0az0jiD7nAceEYET-7" target="NIjT0az0jiD7nAceEYET-9" edge="1">
          <mxGeometry relative="1" as="geometry" />
        </mxCell>
        <mxCell id="NIjT0az0jiD7nAceEYET-7" value="UserService" style="shape=module;align=left;spacingLeft=20;align=center;verticalAlign=top;" parent="1" vertex="1">
          <mxGeometry x="460" y="80" width="100" height="50" as="geometry" />
        </mxCell>
        <mxCell id="NIjT0az0jiD7nAceEYET-36" style="edgeStyle=orthogonalEdgeStyle;rounded=0;orthogonalLoop=1;jettySize=auto;html=1;exitX=1;exitY=0.5;exitDx=0;exitDy=0;" parent="1" source="NIjT0az0jiD7nAceEYET-9" target="NIjT0az0jiD7nAceEYET-34" edge="1">
          <mxGeometry relative="1" as="geometry" />
        </mxCell>
        <mxCell id="NIjT0az0jiD7nAceEYET-9" value="UserRepository" style="shape=module;align=left;spacingLeft=20;align=center;verticalAlign=top;" parent="1" vertex="1">
          <mxGeometry x="640" y="80" width="100" height="50" as="geometry" />
        </mxCell>
        <mxCell id="NIjT0az0jiD7nAceEYET-15" value="" style="edgeStyle=orthogonalEdgeStyle;rounded=0;orthogonalLoop=1;jettySize=auto;html=1;" parent="1" source="NIjT0az0jiD7nAceEYET-12" target="NIjT0az0jiD7nAceEYET-14" edge="1">
          <mxGeometry relative="1" as="geometry" />
        </mxCell>
        <mxCell id="NIjT0az0jiD7nAceEYET-12" value="http request" style="shape=requiredInterface;html=1;verticalLabelPosition=bottom;sketch=0;" parent="1" vertex="1">
          <mxGeometry x="200" y="180" width="10" height="20" as="geometry" />
        </mxCell>
        <mxCell id="NIjT0az0jiD7nAceEYET-17" value="" style="edgeStyle=orthogonalEdgeStyle;rounded=0;orthogonalLoop=1;jettySize=auto;html=1;" parent="1" source="NIjT0az0jiD7nAceEYET-14" target="NIjT0az0jiD7nAceEYET-16" edge="1">
          <mxGeometry relative="1" as="geometry" />
        </mxCell>
        <mxCell id="NIjT0az0jiD7nAceEYET-14" value="EntryController" style="shape=module;align=left;spacingLeft=20;align=center;verticalAlign=top;" parent="1" vertex="1">
          <mxGeometry x="280" y="165" width="100" height="50" as="geometry" />
        </mxCell>
        <mxCell id="NIjT0az0jiD7nAceEYET-19" value="" style="edgeStyle=orthogonalEdgeStyle;rounded=0;orthogonalLoop=1;jettySize=auto;html=1;" parent="1" source="NIjT0az0jiD7nAceEYET-16" target="NIjT0az0jiD7nAceEYET-18" edge="1">
          <mxGeometry relative="1" as="geometry" />
        </mxCell>
        <mxCell id="NIjT0az0jiD7nAceEYET-16" value="EntryService" style="shape=module;align=left;spacingLeft=20;align=center;verticalAlign=top;" parent="1" vertex="1">
          <mxGeometry x="460" y="165" width="100" height="50" as="geometry" />
        </mxCell>
        <mxCell id="NIjT0az0jiD7nAceEYET-37" style="edgeStyle=orthogonalEdgeStyle;rounded=0;orthogonalLoop=1;jettySize=auto;html=1;exitX=1;exitY=0.5;exitDx=0;exitDy=0;entryX=0;entryY=0.5;entryDx=0;entryDy=0;entryPerimeter=0;" parent="1" source="NIjT0az0jiD7nAceEYET-18" target="NIjT0az0jiD7nAceEYET-34" edge="1">
          <mxGeometry relative="1" as="geometry">
            <mxPoint x="760" y="210" as="targetPoint" />
          </mxGeometry>
        </mxCell>
        <mxCell id="NIjT0az0jiD7nAceEYET-18" value="EntryRepository" style="shape=module;align=left;spacingLeft=20;align=center;verticalAlign=top;" parent="1" vertex="1">
          <mxGeometry x="640" y="165" width="100" height="50" as="geometry" />
        </mxCell>
        <mxCell id="NIjT0az0jiD7nAceEYET-20" value="Use" style="endArrow=open;endSize=12;dashed=1;html=1;rounded=0;exitX=0.5;exitY=1;exitDx=0;exitDy=0;entryX=0.5;entryY=0;entryDx=0;entryDy=0;" parent="1" source="NIjT0az0jiD7nAceEYET-16" edge="1" target="NIjT0az0jiD7nAceEYET-21">
          <mxGeometry width="160" relative="1" as="geometry">
            <mxPoint x="440" y="280" as="sourcePoint" />
            <mxPoint x="510" y="280" as="targetPoint" />
          </mxGeometry>
        </mxCell>
        <mxCell id="NIjT0az0jiD7nAceEYET-21" value="MetricFactory" style="shape=module;align=left;spacingLeft=20;align=center;verticalAlign=top;" parent="1" vertex="1">
          <mxGeometry x="340" y="280" width="100" height="50" as="geometry" />
        </mxCell>
        <mxCell id="NIjT0az0jiD7nAceEYET-22" value="DB" style="shape=datastore;whiteSpace=wrap;html=1;" parent="1" vertex="1">
          <mxGeometry x="665" y="280" width="50" height="50" as="geometry" />
        </mxCell>
        <mxCell id="NIjT0az0jiD7nAceEYET-27" value="" style="html=1;verticalAlign=bottom;endArrow=open;dashed=1;endSize=8;rounded=0;exitX=0.5;exitY=1;exitDx=0;exitDy=0;entryX=1;entryY=0.5;entryDx=0;entryDy=0;entryPerimeter=0;" parent="1" source="NIjT0az0jiD7nAceEYET-5" target="NIjT0az0jiD7nAceEYET-32" edge="1">
          <mxGeometry relative="1" as="geometry">
            <mxPoint x="380" y="290" as="sourcePoint" />
            <mxPoint x="220" y="260" as="targetPoint" />
            <Array as="points">
              <mxPoint x="330" y="150" />
              <mxPoint x="260" y="150" />
              <mxPoint x="260" y="260" />
            </Array>
          </mxGeometry>
        </mxCell>
        <mxCell id="NIjT0az0jiD7nAceEYET-28" value="" style="html=1;verticalAlign=bottom;endArrow=open;dashed=1;endSize=8;rounded=0;exitX=0.5;exitY=1;exitDx=0;exitDy=0;entryX=1;entryY=0.5;entryDx=0;entryDy=0;entryPerimeter=0;" parent="1" source="NIjT0az0jiD7nAceEYET-14" target="NIjT0az0jiD7nAceEYET-32" edge="1">
          <mxGeometry relative="1" as="geometry">
            <mxPoint x="350" y="270" as="sourcePoint" />
            <mxPoint x="230" y="260" as="targetPoint" />
            <Array as="points">
              <mxPoint x="330" y="260" />
            </Array>
          </mxGeometry>
        </mxCell>
        <mxCell id="NIjT0az0jiD7nAceEYET-33" style="edgeStyle=orthogonalEdgeStyle;rounded=0;orthogonalLoop=1;jettySize=auto;html=1;exitX=0;exitY=0.5;exitDx=0;exitDy=0;exitPerimeter=0;entryX=0.5;entryY=1;entryDx=0;entryDy=0;" parent="1" source="NIjT0az0jiD7nAceEYET-32" target="NIjT0az0jiD7nAceEYET-2" edge="1">
          <mxGeometry relative="1" as="geometry" />
        </mxCell>
        <mxCell id="NIjT0az0jiD7nAceEYET-32" value="JSON" style="shape=requiredInterface;html=1;verticalLabelPosition=bottom;sketch=0;" parent="1" vertex="1">
          <mxGeometry x="200" y="250" width="10" height="20" as="geometry" />
        </mxCell>
        <mxCell id="NIjT0az0jiD7nAceEYET-38" value="jdbc" style="edgeStyle=orthogonalEdgeStyle;rounded=0;orthogonalLoop=1;jettySize=auto;html=1;exitX=1;exitY=0.5;exitDx=0;exitDy=0;exitPerimeter=0;entryX=1;entryY=0.5;entryDx=0;entryDy=0;" parent="1" source="NIjT0az0jiD7nAceEYET-34" target="NIjT0az0jiD7nAceEYET-22" edge="1">
          <mxGeometry x="-0.1998" y="16" relative="1" as="geometry">
            <mxPoint x="15" y="-11" as="offset" />
          </mxGeometry>
        </mxCell>
        <mxCell id="NIjT0az0jiD7nAceEYET-34" value="" style="shape=requiredInterface;html=1;verticalLabelPosition=bottom;sketch=0;rotation=90;" parent="1" vertex="1">
          <mxGeometry x="770" y="250" width="10" height="20" as="geometry" />
        </mxCell>
        <mxCell id="iKeTLYNLB5LEY6pwVQzi-2" value="Strategy" style="shape=module;align=left;spacingLeft=20;align=center;verticalAlign=top;" vertex="1" parent="1">
          <mxGeometry x="460" y="280" width="100" height="50" as="geometry" />
        </mxCell>
        <mxCell id="iKeTLYNLB5LEY6pwVQzi-4" value="Use" style="endArrow=open;endSize=12;dashed=1;html=1;rounded=0;exitX=0.5;exitY=1;exitDx=0;exitDy=0;" edge="1" parent="1" source="NIjT0az0jiD7nAceEYET-16" target="iKeTLYNLB5LEY6pwVQzi-2">
          <mxGeometry width="160" relative="1" as="geometry">
            <mxPoint x="520" y="225" as="sourcePoint" />
            <mxPoint x="400" y="290" as="targetPoint" />
          </mxGeometry>
        </mxCell>
      </root>
    </mxGraphModel>
  </diagram>
</mxfile>
